<svg xmlns="http://www.w3.org/2000/svg" width="880" height="640" viewBox="0 0 880 640" role="img" aria-label="Rishit Srinivas">
  <defs>
    <linearGradient id="page" x1="0" y1="0" x2="1" y2="1">
      <stop offset="0%" stop-color="#08090d"/>
      <stop offset="100%" stop-color="#10131a"/>
    </linearGradient>
    <linearGradient id="gold" x1="0" y1="0" x2="0" y2="1">
      <stop offset="0%" stop-color="#e6c98a"/>
      <stop offset="100%" stop-color="#b8924e"/>
    </linearGradient>
    <radialGradient id="glow" cx="22%" cy="70%" r="58%">
      <stop offset="0%" stop-color="#2a4a3d" stop-opacity="0.42"/>
      <stop offset="70%" stop-color="#0b0d12" stop-opacity="0"/>
    </radialGradient>
  </defs>
  <rect width="880" height="640" rx="26" fill="url(#page)"/>
  <rect x="10" y="10" width="860" height="620" rx="20" fill="none" stroke="#1c211c"/>
  <rect x="28" y="28" width="236" height="236" rx="20" fill="#120f0c" stroke="#2a261c"/>
  <rect x="62" y="52" width="168" height="118" rx="10" fill="none" stroke="url(#gold)" stroke-width="8"/>
  <text x="78" y="148" font-family="Georgia, Times New Roman, serif" font-size="72" font-weight="700" fill="url(#gold)">R</text>
  <text x="148" y="92" font-family="Georgia, Times New Roman, serif" font-size="28" font-weight="700" fill="#c9a86c">S</text>
  <text x="48" y="210" font-family="ui-sans-serif, system-ui, Segoe UI, sans-serif" font-size="20" font-weight="700" fill="#f3ede0">Rishit Srinivas</text>
  <text x="48" y="232" font-family="ui-sans-serif, system-ui, Segoe UI, sans-serif" font-size="12.5" fill="#8c8274">@RishitSrinivas · he/him</text>
  <rect x="280" y="28" width="572" height="236" rx="20" fill="#0c0e14" stroke="#1b2030"/>
  <text x="566" y="56" text-anchor="middle" font-family="ui-sans-serif, system-ui, Segoe UI, sans-serif" font-size="10" letter-spacing="3.6" fill="#7a818c">TECH STACK</text>
  <rect x="382" y="74" width="100" height="28" rx="14" fill="#161a22" stroke="#2a3140"/>
  <circle cx="396" cy="88" r="4" fill="#3178c6"/>
  <text x="437" y="92" text-anchor="middle" font-family="ui-sans-serif, system-ui, Segoe UI, sans-serif" font-size="11.5" fill="#e8eaef">TypeScript</text>
  <rect x="490" y="74" width="100" height="28" rx="14" fill="#161a22" stroke="#2a3140"/>
  <circle cx="504" cy="88" r="4" fill="#f7df1e"/>
  <text x="545" y="92" text-anchor="middle" font-family="ui-sans-serif, system-ui, Segoe UI, sans-serif" font-size="11.5" fill="#e8eaef">JavaScript</text>
  <rect x="598" y="74" width="72" height="28" rx="14" fill="#161a22" stroke="#2a3140"/>
  <circle cx="612" cy="88" r="4" fill="#e34f26"/>
  <text x="639" y="92" text-anchor="middle" font-family="ui-sans-serif, system-ui, Segoe UI, sans-serif" font-size="11.5" fill="#e8eaef">HTML5</text>
  <rect x="678" y="74" width="72" height="28" rx="14" fill="#161a22" stroke="#2a3140"/>
  <circle cx="692" cy="88" r="4" fill="#1572b6"/>
  <text x="719" y="92" text-anchor="middle" font-family="ui-sans-serif, system-ui, Segoe UI, sans-serif" font-size="11.5" fill="#e8eaef">CSS3</text>
  <rect x="370" y="110" width="72" height="28" rx="14" fill="#161a22" stroke="#2a3140"/>
  <circle cx="384" cy="124" r="4" fill="#4eaa25"/>
  <text x="411" y="128" text-anchor="middle" font-family="ui-sans-serif, system-ui, Segoe UI, sans-serif" font-size="11.5" fill="#e8eaef">Bash</text>
  <rect x="450" y="110" width="72" height="28" rx="14" fill="#161a22" stroke="#2a3140"/>
  <circle cx="464" cy="124" r="4" fill="#3776ab"/>
  <text x="491" y="128" text-anchor="middle" font-family="ui-sans-serif, system-ui, Segoe UI, sans-serif" font-size="11.5" fill="#e8eaef">Python</text>
  <rect x="530" y="110" width="72" height="28" rx="14" fill="#161a22" stroke="#2a3140"/>
  <circle cx="544" cy="124" r="4" fill="#f89820"/>
  <text x="571" y="128" text-anchor="middle" font-family="ui-sans-serif, system-ui, Segoe UI, sans-serif" font-size="11.5" fill="#e8eaef">Java</text>
  <rect x="610" y="110" width="72" height="28" rx="14" fill="#161a22" stroke="#2a3140"/>
  <circle cx="624" cy="124" r="4" fill="#cc342d"/>
  <text x="651" y="128" text-anchor="middle" font-family="ui-sans-serif, system-ui, Segoe UI, sans-serif" font-size="11.5" fill="#e8eaef">Ruby</text>
  <rect x="690" y="110" width="72" height="28" rx="14" fill="#161a22" stroke="#2a3140"/>
  <circle cx="704" cy="124" r="4" fill="#00599c"/>
  <text x="731" y="128" text-anchor="middle" font-family="ui-sans-serif, system-ui, Segoe UI, sans-serif" font-size="11.5" fill="#e8eaef">C++</text>
  <rect x="407" y="146" width="72" height="28" rx="14" fill="#161a22" stroke="#2a3140"/>
  <circle cx="421" cy="160" r="4" fill="#2496ed"/>
  <text x="448" y="164" text-anchor="middle" font-family="ui-sans-serif, system-ui, Segoe UI, sans-serif" font-size="11.5" fill="#e8eaef">Docker</text>
  <rect x="487" y="146" width="72" height="28" rx="14" fill="#161a22" stroke="#2a3140"/>
  <circle cx="501" cy="160" r="4" fill="#e6edf3"/>
  <text x="528" y="164" text-anchor="middle" font-family="ui-sans-serif, system-ui, Segoe UI, sans-serif" font-size="11.5" fill="#e8eaef">GitHub</text>
  <rect x="567" y="146" width="78" height="28" rx="14" fill="#161a22" stroke="#2a3140"/>
  <circle cx="581" cy="160" r="4" fill="#ffffff"/>
  <text x="611" y="164" text-anchor="middle" font-family="ui-sans-serif, system-ui, Segoe UI, sans-serif" font-size="11.5" fill="#e8eaef">Next.js</text>
  <rect x="653" y="146" width="72" height="28" rx="14" fill="#161a22" stroke="#2a3140"/>
  <circle cx="667" cy="160" r="4" fill="#4479a1"/>
  <text x="694" y="164" text-anchor="middle" font-family="ui-sans-serif, system-ui, Segoe UI, sans-serif" font-size="11.5" fill="#e8eaef">MySQL</text>
  <rect x="386" y="182" width="72" height="28" rx="14" fill="#161a22" stroke="#2a3140"/>
  <circle cx="400" cy="196" r="4" fill="#f05138"/>
  <text x="427" y="200" text-anchor="middle" font-family="ui-sans-serif, system-ui, Segoe UI, sans-serif" font-size="11.5" fill="#e8eaef">Swift</text>
  <rect x="466" y="182" width="72" height="28" rx="14" fill="#161a22" stroke="#2a3140"/>
  <circle cx="480" cy="196" r="4" fill="#61dafb"/>
  <text x="507" y="200" text-anchor="middle" font-family="ui-sans-serif, system-ui, Segoe UI, sans-serif" font-size="11.5" fill="#e8eaef">React</text>
  <rect x="546" y="182" width="114" height="28" rx="14" fill="#161a22" stroke="#2a3140"/>
  <circle cx="560" cy="196" r="4" fill="#61dafb"/>
  <text x="608" y="200" text-anchor="middle" font-family="ui-sans-serif, system-ui, Segoe UI, sans-serif" font-size="11.5" fill="#e8eaef">React Native</text>
  <rect x="668" y="182" width="78" height="28" rx="14" fill="#161a22" stroke="#2a3140"/>
  <circle cx="682" cy="196" r="4" fill="#339933"/>
  <text x="712" y="200" text-anchor="middle" font-family="ui-sans-serif, system-ui, Segoe UI, sans-serif" font-size="11.5" fill="#e8eaef">Node.js</text>
  <rect x="386.5" y="218" width="100" height="28" rx="14" fill="#161a22" stroke="#2a3140"/>
  <circle cx="400.5" cy="232" r="4" fill="#336791"/>
  <text x="441.5" y="236" text-anchor="middle" font-family="ui-sans-serif, system-ui, Segoe UI, sans-serif" font-size="11.5" fill="#e8eaef">PostgreSQL</text>
  <rect x="494.5" y="218" width="78" height="28" rx="14" fill="#161a22" stroke="#2a3140"/>
  <circle cx="508.5" cy="232" r="4" fill="#009688"/>
  <text x="538.5" y="236" text-anchor="middle" font-family="ui-sans-serif, system-ui, Segoe UI, sans-serif" font-size="11.5" fill="#e8eaef">FastAPI</text>
  <rect x="580.5" y="218" width="85" height="28" rx="14" fill="#161a22" stroke="#2a3140"/>
  <circle cx="594.5" cy="232" r="4" fill="#3ecf8e"/>
  <text x="628" y="236" text-anchor="middle" font-family="ui-sans-serif, system-ui, Segoe UI, sans-serif" font-size="11.5" fill="#e8eaef">Supabase</text>
  <rect x="673.5" y="218" width="72" height="28" rx="14" fill="#161a22" stroke="#2a3140"/>
  <circle cx="687.5" cy="232" r="4" fill="#cb3837"/>
  <text x="714.5" y="236" text-anchor="middle" font-family="ui-sans-serif, system-ui, Segoe UI, sans-serif" font-size="11.5" fill="#e8eaef">npm</text>
  <rect x="28" y="280" width="532" height="196" rx="20" fill="#0c1010" stroke="#1b2420"/>
  <rect x="28" y="280" width="532" height="196" rx="20" fill="url(#glow)"/>
  <circle cx="140" cy="378" r="78" fill="none" stroke="#1e2a24"/>
  <circle cx="140" cy="378" r="52" fill="none" stroke="#24332c"/>
  <circle cx="140" cy="378" r="24" fill="none" stroke="#2e4036"/>
  <text x="52" y="318" font-family="ui-sans-serif, system-ui, Segoe UI, sans-serif" font-size="10" letter-spacing="3.8" fill="#7a8a80">ABOUT</text>
  <text x="52" y="362" font-family="ui-sans-serif, system-ui, Segoe UI, sans-serif" font-size="26" font-weight="700" fill="#f3ede0">view my portfolio</text>
  <text x="52" y="394" font-family="ui-sans-serif, system-ui, Segoe UI, sans-serif" font-size="26" font-weight="700" fill="#f3ede0">and reach out</text>
  <text x="52" y="434" font-family="ui-monospace, SFMono-Regular, Menlo, monospace" font-size="13" fill="#9aa89a">> rishitsrinivas.com</text>
  <rect x="576" y="280" width="276" height="90" rx="20" fill="#0c0e14" stroke="#1b2030"/>
  <circle cx="714" cy="312" r="9" fill="none" stroke="#d8d0c4" stroke-width="1.5"/>
  <circle cx="714" cy="312" r="3.2" fill="#c9a86c"/>
  <text x="714" y="346" text-anchor="middle" font-family="ui-sans-serif, system-ui, Segoe UI, sans-serif" font-size="10" letter-spacing="2.8" fill="#8b909a">ALWAYS LEARNING</text>
  <rect x="576" y="386" width="276" height="90" rx="20" fill="#0c0e14" stroke="#1b2030"/>
  <path d="M714 406l2.8 6.8 7.2.7-5.4 4.8 1.5 7.1-6.1-3.6-6.1 3.6 1.5-7.1-5.4-4.8 7.2-.7z" fill="none" stroke="#d8d0c4" stroke-width="1.4"/>
  <text x="714" y="452" text-anchor="middle" font-family="ui-sans-serif, system-ui, Segoe UI, sans-serif" font-size="10" letter-spacing="2.8" fill="#8b909a">CRAFT MATTERS</text>
  <rect x="28" y="492" width="824" height="124" rx="20" fill="#0c0e14" stroke="#1b2030"/>
  <text x="52" y="522" font-family="ui-sans-serif, system-ui, Segoe UI, sans-serif" font-size="10" letter-spacing="3.4" fill="#7a818c">GITHUB</text>
  <text x="108" y="568" text-anchor="middle" font-family="Georgia, Times New Roman, serif" font-size="28" fill="#f3ede0">12</text>
  <text x="108" y="590" text-anchor="middle" font-family="ui-sans-serif, system-ui, Segoe UI, sans-serif" font-size="10" letter-spacing="1.6" fill="#8c8274">REPOSITORIES</text>
  <line x1="196" y1="540" x2="196" y2="596" stroke="#232836"/>
  <text x="284" y="568" text-anchor="middle" font-family="Georgia, Times New Roman, serif" font-size="28" fill="#f3ede0">73</text>
  <text x="284" y="590" text-anchor="middle" font-family="ui-sans-serif, system-ui, Segoe UI, sans-serif" font-size="10" letter-spacing="1.6" fill="#8c8274">CONTRIBUTIONS</text>
  <line x1="372" y1="540" x2="372" y2="596" stroke="#232836"/>
  <text x="470" y="568" text-anchor="middle" font-family="Georgia, Times New Roman, serif" font-size="28" fill="#c9a86c">2017</text>
  <text x="470" y="590" text-anchor="middle" font-family="ui-sans-serif, system-ui, Segoe UI, sans-serif" font-size="10" letter-spacing="1.6" fill="#8c8274">ON GITHUB</text>
  <line x1="568" y1="540" x2="568" y2="596" stroke="#232836"/>
  <text x="720" y="556" text-anchor="middle" font-family="ui-sans-serif, system-ui, Segoe UI, sans-serif" font-size="13" fill="#f3ede0">TypeScript  ·  Java  ·  C++</text>
  <text x="720" y="578" text-anchor="middle" font-family="ui-sans-serif, system-ui, Segoe UI, sans-serif" font-size="12" fill="#c9a86c">SJSU  ·  SWE + AI/ML + Design</text>
  <text x="720" y="598" text-anchor="middle" font-family="ui-sans-serif, system-ui, Segoe UI, sans-serif" font-size="10" letter-spacing="1.6" fill="#8c8274">TOP FOCUS</text>
</svg>
